:version 1.10
:name ASF
:units
  mass 1
  length 1
  angle deg
:documentation
  ASF file generated by Kaydara
:root
  axis xyz
  order  tx ty tz rx ry rz
  position 0 0 0
  orientation 0 0 0
:bonedata
  begin
    id 1
    name RightUpLegDummy
    direction -0.718183 -0.695806 0.00816078
    length 4.904
    axis 0 0 0 xyz
  end
  begin
    id 2
    name RightUpLeg
    direction 3.53373e-006 -0.995788 0.0916898
    length 17.4976
    axis -3.49089 -0.000906625 0.000286804 xyz
    dof rx ry rz
  end
  begin
    id 3
    name RightLeg
    direction 0.00371092 -0.995096 -0.0988419
    length 16.5821
    axis 3.68512 0.0193738 -0.131023 xyz
    dof rx ry rz
  end
  begin
    id 4
    name RightFoot
    direction 0.00079151 -0.46099 0.887405
    length 3.77069
    axis 4.81691e-005 -0.120479 -0.188788 xyz
    dof rx ry rz
  end
  begin
    id 5
    name RightToes
    direction 0 0 0
    length 0
    axis 0 0 0 xyz
    dof rx ry rz
  end
  begin
    id 6
    name SpineDummy
    direction 8.3039e-015 1 4.57515e-016
    length 4.6813
    axis 0 0 0 xyz
  end
  begin
    id 7
    name Spine
    direction -3.15643e-008 0.999988 0.00495137
    length 10.1015
    axis -0.001389 0.000121418 2.40972e-006 xyz
    dof rx ry rz
  end
  begin
    id 8
    name Spine1
    direction 0 0 0
    length 0
    axis -0.001389 0.000121451 1.30017e-006 xyz
    dof rx ry rz
  end
  begin
    id 9
    name HEadDummy
    direction -1.99912e-008 0.999999 0.00127422
    length 3.43865
    axis -0.001389 0.000121451 1.30017e-006 xyz
  end
  begin
    id 10
    name HEad
    direction 0 0 0
    length 0
    axis 0 0 0 xyz
    dof rx ry rz
  end
  begin
    id 11
    name LeftShoulder1Dummy
    direction 0.998891 -0.0402509 -0.0244456
    length 3.5433
    axis -0.001389 0.000121451 1.30017e-006 xyz
  end
  begin
    id 12
    name LeftShoulder1
    direction 0.99951 -0.000327763 0.0313091
    length 4.05031
    axis -0.001389 0.000121451 1.30017e-006 xyz
    dof rx ry rz
  end
  begin
    id 13
    name LeftArm
    direction 0.998561 -0.00100056 -0.0536182
    length 10.3537
    axis -23.1894 0.134784 0.967509 xyz
    dof rx ry rz
  end
  begin
    id 14
    name LeftForeArm
    direction 0.998903 0.00866432 0.046012
    length 8.70632
    axis -9.91835 -0.06569 -0.177794 xyz
    dof rx ry rz
  end
  begin
    id 15
    name LeftHand
    direction 0 0 0
    length 0
    axis 0 0 0 xyz
    dof rx ry rz
  end
  begin
    id 16
    name RightShoulderDummy
    direction -0.998891 -0.0402509 -0.0244414
    length 3.5433
    axis -0.001389 0.000121451 1.30017e-006 xyz
  end
  begin
    id 17
    name RightShoulder
    direction -0.99951 -0.000327807 0.0313133
    length 4.05031
    axis 0.215806 0.000203643 -0.0068026 xyz
    dof rx ry rz
  end
  begin
    id 18
    name RightArm
    direction -0.998573 -0.000999564 -0.053403
    length 10.3947
    axis -23.2009 -0.134239 -0.964101 xyz
    dof rx ry rz
  end
  begin
    id 19
    name RightForeArm
    direction -0.998898 0.00868028 0.0461306
    length 8.68355
    axis -9.92322 0.0658061 0.178868 xyz
    dof rx ry rz
  end
  begin
    id 20
    name RightHand
    direction 0 0 0
    length 0
    axis 0 0 0 xyz
    dof rx ry rz
  end
  begin
    id 21
    name LeftUpLegDummy
    direction 0.718183 -0.695806 0.00816078
    length 4.904
    axis 0 0 0 xyz
  end
  begin
    id 22
    name LeftUpLeg
    direction -6.81752e-006 -0.995793 0.0916337
    length 17.4976
    axis -3.48766 0.00143442 -0.000524262 xyz
    dof rx ry rz
  end
  begin
    id 23
    name LeftLeg
    direction -0.00601358 -0.995091 -0.0987824
    length 16.5821
    axis 3.68178 -0.00654042 -0.000285133 xyz
    dof rx ry rz
  end
  begin
    id 24
    name LeftFoot
    direction -0.00417578 -0.460984 0.887399
    length 3.77069
    axis 1.87233e-006 4.66016e-005 -8.6538e-006 xyz
    dof rx ry rz
  end
  begin
    id 25
    name LeftToes
    direction 0 0 0
    length 0
    axis 0 0 0 xyz
    dof rx ry rz
  end
:hierarchy
  begin
    root RightUpLegDummy SpineDummy LeftUpLegDummy
    RightUpLegDummy RightUpLeg
    RightUpLeg RightLeg
    RightLeg RightFoot
    RightFoot RightToes
    SpineDummy Spine
    Spine Spine1
    Spine1 HEadDummy LeftShoulder1Dummy RightShoulderDummy
    HEadDummy HEad
    LeftShoulder1Dummy LeftShoulder1
    LeftShoulder1 LeftArm
    LeftArm LeftForeArm
    LeftForeArm LeftHand
    RightShoulderDummy RightShoulder
    RightShoulder RightArm
    RightArm RightForeArm
    RightForeArm RightHand
    LeftUpLegDummy LeftUpLeg
    LeftUpLeg LeftLeg
    LeftLeg LeftFoot
    LeftFoot LeftToes
  end

:SAMPLES-PER-SECOND 30
:FULLY-SPECIFIED
:DEGREES
486
root  34.5361 39.9369 9.45816 3.07416 70.2283 6.86743
RightUpLeg  -9.66117 -9.52424 -9.70679
RightLeg  14.8576 3.51632 1.00654
RightFoot  1.00268 -0.257758 2.44568
RightToes  0.000481921 0.542163 -0.142578
Spine  14.5013 -3.01994 -3.25584
Spine1  13.1424 -7.42027 11.918
HEad  14.7291 21.2511 -6.86346
LeftShoulder1  3.78446 -11.2561 -19.1241
LeftArm  -21.3912 -34.931 -21.3393
LeftForeArm  49.9272 -71.4606 -31.0091
LeftHand  -0.25398 0.0180481 5.50724
RightShoulder  4.84144 10.7411 27.9739
RightArm  10.9664 17.2938 56.9288
RightForeArm  159.291 64.8354 157.951
RightHand  -1.61287 5.85006 -16.9329
LeftUpLeg  1.41913 21.9942 7.88882
LeftLeg  14.3924 18.9966 1.87621
LeftFoot  -4.60574 0.417692 -6.62539
LeftToes  1.06244e-005 4.65869e-005 -8.65518e-006
487
root  34.918 40.0365 9.50686 3.58362 70.5004 7.31696
RightUpLeg  -8.5675 -9.20705 -10.0685
RightLeg  13.9164 3.10175 0.783466
RightFoot  0.820683 -0.279035 2.6701
RightToes  0.000481921 0.542163 -0.142578
Spine  12.6137 -3.24929 -2.38699
Spine1  13.6807 -7.1157 10.4217
HEad  13.8029 20.8554 -7.21675
LeftShoulder1  4.66934 -11.916 -24.0309
LeftArm  -18.4274 -23.4356 -26.6861
LeftForeArm  138.127 -79.7164 -116.858
LeftHand  -0.25398 0.0180481 5.50724
RightShoulder  4.76417 10.5247 27.9483
RightArm  11.6971 15.7498 56.6846
RightForeArm  160.744 64.6306 158.298
RightHand  -1.50542 5.73509 -15.9951
LeftUpLeg  2.99085 17.4036 7.77517
LeftLeg  12.168 23.4401 0.314656
LeftFoot  -4.19828 0.436037 -6.57813
LeftToes  1.06244e-005 4.65869e-005 -8.65518e-006
488
root  35.2798 40.0832 9.49993 3.8559 70.9234 7.47357
RightUpLeg  -7.75013 -9.49509 -10.4489
RightLeg  13.424 3.09907 0.79211
RightFoot  0.49773 -0.298483 2.90977
RightToes  0.000481921 0.542163 -0.142578
Spine  10.9667 -3.45904 -1.16455
Spine1  13.9815 -6.65515 8.60667
HEad  12.9259 20.1645 -7.09486
LeftShoulder1  6.00384 -12.5201 -31.407
LeftArm  -15.5608 -12.0894 -28.9909
LeftForeArm  -171.362 -66.3411 -160.496
LeftHand  -0.25398 0.0180481 5.50724
RightShoulder  4.81354 10.5107 28.3451
RightArm  11.9765 14.9371 56.2759
RightForeArm  164.017 64.3106 158.936
RightHand  -1.34852 5.58354 -14.5801
LeftUpLeg  4.05203 15.249 7.74313
LeftLeg  10.7107 25.2593 -0.868836
LeftFoot  -4.23149 0.438556 -6.64736
LeftToes  1.06244e-005 4.65869e-005 -8.65518e-006
489
root  35.5415 40.0437 9.42471 3.98761 71.8204 7.72388
RightUpLeg  -7.23901 -10.0253 -10.9439
RightLeg  13.9567 2.95542 0.803645
RightFoot  -0.275018 -0.323362 3.31937
RightToes  0.000481921 0.542163 -0.142578
Spine  9.80198 -3.5011 0.60685
Spine1  14.5204 -5.76617 6.01005
HEad  11.845 18.3436 -6.18362
LeftShoulder1  7.48048 -13.33 -38.2803
LeftArm  -14.2859 -3.21081 -30.8846
LeftForeArm  -161.84 -56.3891 -167.404
LeftHand  -0.25398 0.0180481 5.50724
RightShoulder  4.88816 10.4594 29.0234
RightArm  11.3397 14.8292 56.1347
RightForeArm  165.996 64.0779 159.348
RightHand  -1.28429 5.61828 -13.8708
LeftUpLeg  4.21913 16.3245 7.7809
LeftLeg  11.27 23.267 -0.713287
LeftFoot  -4.97171 0.409088 -6.81329
LeftToes  1.06244e-005 4.65869e-005 -8.65518e-006
490
root  35.6211 39.8869 9.30712 4.72644 73.1521 9.052
RightUpLeg  -7.35252 -9.92038 -11.6635
RightLeg  16.291 1.91756 0.458073
RightFoot  -1.73802 -0.339343 3.89962
RightToes  0.000481921 0.542163 -0.142578
Spine  9.52199 -3.13896 2.54777
Spine1  15.3309 -4.22801 2.80157
HEad  10.1876 14.8693 -4.64226
LeftShoulder1  8.59871 -14.3561 -41.7987
LeftArm  -14.2305 0.700821 -34.2166
LeftForeArm  -162.914 -52.4113 -168.915
LeftHand  -0.25398 0.0180481 5.50724
RightShoulder  4.94411 10.3722 29.6592
RightArm  9.3853 15.3538 56.1123
RightForeArm  165.413 64.0216 159.336
RightHand  -1.38079 6.04325 -14.3426
LeftUpLeg  3.40346 20.9585 7.5917
LeftLeg  14.0336 17.1624 0.968062
LeftFoot  -6.33725 0.343657 -6.99118
LeftToes  1.06244e-005 4.65869e-005 -8.65518e-006
491
root  35.5052 39.5903 9.19463 6.71222 74.5783 12.268
RightUpLeg  -8.14682 -8.44471 -12.7168
RightLeg  20.671 -0.389796 -0.394618
RightFoot  -3.75606 -0.322617 4.47657
RightToes  0.000481921 0.542163 -0.142578
Spine  10.6801 -2.38487 4.17246
Spine1  15.8166 -2.19106 -0.35871
HEad  8.21388 10.3981 -3.165
LeftShoulder1  9.23281 -15.4602 -42.2909
LeftArm  -13.7911 -1.28325 -36.8501
LeftForeArm  -167.56 -53.2813 -168.177
LeftHand  -0.25398 0.0180481 5.50724
RightShoulder  5.06966 10.5283 30.1647
RightArm  6.05881 16.5127 55.5475
RightForeArm  163.92 64.1761 159.046
RightHand  -1.57773 6.80653 -15.3466
LeftUpLeg  2.0469 26.0575 6.87355
LeftLeg  18.1128 10.3117 3.19032
LeftFoot  -8.03263 0.255463 -7.17955
LeftToes  1.06244e-005 4.65869e-005 -8.65518e-006
492
root  35.2707 39.1574 9.11135 9.36682 76.1697 16.7805
RightUpLeg  -8.9538 -6.87091 -13.8452
RightLeg  26.1897 -2.70263 -1.67189
RightFoot  -5.94325 -0.277909 5.0357
RightToes  0.000481921 0.542163 -0.142578
Spine  13.0724 -1.75573 5.19368
Spine1  15.9813 -0.491827 -2.68879
HEad  6.22956 6.31914 -2.32001
LeftShoulder1  9.43341 -16.2918 -41.3155
LeftArm  -13.2243 -7.53812 -37.3623
LeftForeArm  -170.96 -56.787 -166.279
LeftHand  -0.25398 0.0180481 5.50724
RightShoulder  5.32538 11.1069 30.488
RightArm  1.97105 18.79 54.3725
RightForeArm  162.587 64.9621 158.184
RightHand  -1.74503 7.55464 -15.9864
LeftUpLeg  0.632033 25.2382 6.0266
LeftLeg  23.2016 8.93944 4.63668
LeftFoot  -9.95703 0.14854 -7.35152
LeftToes  1.06244e-005 4.65869e-005 -8.65518e-006
493
root  35.0277 38.6426 9.04409 11.7728 78.3866 21.2753
RightUpLeg  -9.07332 -6.53009 -14.6968
RightLeg  31.4211 -4.1353 -2.95586
RightFoot  -8.0766 -0.218125 5.73493
RightToes  0.000481921 0.542163 -0.142578
Spine  15.3966 -1.70455 5.60881
Spine1  16.735 0.114853 -3.64747
HEad  4.12691 3.38803 -2.05584
LeftShoulder1  9.1657 -16.5999 -39.3607
LeftArm  -13.9357 -15.3708 -37.4597
LeftForeArm  -172.482 -60.4507 -164.091
LeftHand  -0.25398 0.0180481 5.50724
RightShoulder  5.58653 11.8617 30.3945
RightArm  -1.91927 22.7478 53.2901
RightForeArm  159.904 66.621 156.211
RightHand  -1.82542 8.06677 -16.0896
LeftUpLeg  -0.651554 22.4802 5.78679
LeftLeg  28.665 8.80377 5.51843
LeftFoot  -12.0597 0.0266419 -7.3167
LeftToes  1.06244e-005 4.65869e-005 -8.65518e-006
494
root  34.837 38.1436 8.98106 14.8704 81.1008 26.0668
RightUpLeg  -8.69597 -7.47866 -15.2965
RightLeg  35.53 -4.76988 -3.90476
RightFoot  -10.0105 -0.143746 6.49304
RightToes  0.000481921 0.542163 -0.142578
Spine  16.5797 -1.93762 5.5361
Spine1  18.4046 -0.0867155 -3.3602
HEad  2.01902 0.994838 -1.66531
LeftShoulder1  8.53996 -16.615 -36.333
LeftArm  -15.8114 -23.2339 -39.0346
LeftForeArm  -175.117 -63.3043 -161.877
LeftHand  -0.25398 0.0180481 5.50724
RightShoulder  5.65436 12.3657 29.6501
RightArm  -5.19815 28.0187 52.7804
RightForeArm  154.418 68.3547 153.538
RightHand  -1.89648 8.41268 -16.2932
LeftUpLeg  -2.00404 20.2264 5.92205
LeftLeg  33.4344 7.84058 5.89243
LeftFoot  -14.0099 -0.0801869 -7.04252
LeftToes  1.06244e-005 4.65869e-005 -8.65518e-006
495
root  34.6924 37.7772 8.92978 21.1132 83.3737 33.2142
RightUpLeg  -8.51124 -8.71849 -15.8645
RightLeg  38.287 -5.11089 -4.58501
RightFoot  -11.3254 -0.0784976 6.95532
RightToes  0.000481921 0.542163 -0.142578
Spine  16.7193 -1.86109 5.32458
Spine1  20.2202 -0.0957917 -2.89453
HEad  0.358673 -1.85832 -0.289271
LeftShoulder1  7.78041 -16.7015 -32.4498
LeftArm  -17.7019 -31.4344 -42.051
LeftForeArm  -179.685 -65.8315 -159.291
LeftHand  -0.25398 0.0180481 5.50724
RightShoulder  5.46337 12.4612 28.204
RightArm  -8.22118 33.5338 52.71
RightForeArm  147.831 69.0407 151.779
RightHand  -2.06742 8.79635 -17.2401
LeftUpLeg  -3.30457 18.8335 5.9228
LeftLeg  36.581 6.69724 5.68101
LeftFoot  -15.2908 -0.13967 -6.69691
LeftToes  1.06244e-005 4.65869e-005 -8.65518e-006
496
root  34.5716 37.6543 8.88577 30.6448 84.6187 42.861
RightUpLeg  -8.61501 -9.50019 -16.3437
RightLeg  39.318 -5.56616 -5.14349
RightFoot  -11.5391 -0.0663425 6.9854
RightToes  0.000481921 0.542163 -0.142578
Spine  16.6004 -1.36127 5.42
Spine1  21.0685 0.575337 -3.04972
HEad  -0.318269 -5.44417 1.96414
LeftShoulder1  7.07812 -16.9616 -28.477
LeftArm  -19.2249 -40.0177 -45.1501
LeftForeArm  176.169 -68.3662 -156.212
LeftHand  -0.25398 0.0180481 5.50724
RightShoulder  5.10309 12.3287 26.1478
RightArm  -11.3877 38.5257 52.5569
RightForeArm  143.286 68.6069 151.786
RightHand  -2.35858 9.42031 -18.7791
LeftUpLeg  -4.18694 18.422 5.58133
LeftLeg  37.5003 5.79698 5.13268
LeftFoot  -15.4963 -0.137539 -6.34173
LeftToes  1.06244e-005 4.65869e-005 -8.65518e-006
497
root  34.4731 37.8292 8.82954 40.499 85.2897 52.1828
RightUpLeg  -8.41717 -10.1291 -16.5138
RightLeg  38.0457 -6.16614 -5.42073
RightFoot  -10.5886 -0.1169 6.83197
RightToes  0.000481921 0.542163 -0.142578
Spine  16.519 -0.862227 5.94132
Spine1  20.7091 1.42462 -3.65069
HEad  -0.133535 -9.1877 4.18881
LeftShoulder1  6.35856 -17.1377 -24.5549
LeftArm  -20.7518 -47.907 -47.8365
LeftForeArm  173.376 -70.535 -153.095
LeftHand  -0.25398 0.0180481 5.50724
RightShoulder  4.66398 12.2352 23.4291
RightArm  -14.6106 43.1489 52.2077
RightForeArm  141.444 68.0078 152.366
RightHand  -2.65231 10.1638 -20.0649
LeftUpLeg  -4.52078 18.3836 5.05863
LeftLeg  36.0927 5.32712 4.52815
LeftFoot  -14.5023 -0.0747514 -5.83518
LeftToes  1.06244e-005 4.65869e-005 -8.65518e-006
498
root  34.4041 38.2522 8.76525 50.8939 85.9333 61.4637
RightUpLeg  -7.62974 -11.1542 -16.3555
RightLeg  34.4731 -6.72919 -5.19908
RightFoot  -8.77699 -0.209975 6.70152
RightToes  0.000481921 0.542163 -0.142578
Spine  16.2738 -0.620041 6.49194
Spine1  19.459 1.85677 -4.07341
HEad  0.442328 -12.4532 5.79802
LeftShoulder1  5.51827 -17.0299 -20.3976
LeftArm  -22.6835 -54.3496 -50.0375
LeftForeArm  169.666 -72.0808 -150.179
LeftHand  -0.25398 0.0180481 5.50724
RightShoulder  4.20332 12.3344 20.1398
RightArm  -17.9609 47.7454 51.5089
RightForeArm  140.705 67.9021 152.414
RightHand  -2.80504 10.6246 -20.588
LeftUpLeg  -4.47166 18.3539 4.51635
LeftLeg  32.6696 5.09356 3.86825
LeftFoot  -12.4664 0.023648 -5.13581
LeftToes  1.06244e-005 4.65869e-005 -8.65518e-006
499
root  34.3607 38.7923 8.71957 62.6902 86.4232 71.6663
RightUpLeg  -6.64321 -12.5293 -16.0318
RightLeg  29.4741 -7.11486 -4.56604
RightFoot  -6.4012 -0.323001 6.47862
RightToes  0.000481921 0.542163 -0.142578
Spine  15.9207 -0.454362 6.69233
Spine1  17.4553 1.96531 -4.1549
HEad  1.05066 -15.1772 7.11605
LeftShoulder1  4.59234 -16.6585 -15.9849
LeftArm  -25.2664 -59.7991 -51.3604
LeftForeArm  163.97 -73.3682 -146.921
LeftHand  -0.25398 0.0180481 5.50724
RightShoulder  3.70784 12.5013 16.4918
RightArm  -22.0657 52.152 50.1643
RightForeArm  139.442 68.186 151.883
RightHand  -2.8137 10.6295 -20.641
LeftUpLeg  -4.1704 18.7106 3.96924
LeftLeg  27.8042 4.64511 3.00259
LeftFoot  -9.76889 0.119577 -4.44363
LeftToes  1.06244e-005 4.65869e-005 -8.65518e-006
